<?xml version="1.0" standalone="no"?><!DOCTYPE svg PUBLIC "-//W3C//DTD SVG 1.1//EN" "http://www.w3.org/Graphics/SVG/1.1/DTD/svg11.dtd"><svg t="1765353467763" class="icon" viewBox="0 0 1024 1024" version="1.1" xmlns="http://www.w3.org/2000/svg" p-id="13150" xmlns:xlink="http://www.w3.org/1999/xlink" width="200" height="200"><path d="M960 640h-128v64h128a64 64 0 0 1 0 128h-128v128a64 64 0 0 1-128 0V576a64 64 0 0 1 64-64h192a64 64 0 0 1 0 128zM0 1024L896 0h128L128 1024H0zM448 128H320v320a64 64 0 0 1-128 0V128H64a64 64 0 0 1 0-128h384a64 64 0 0 1 0 128z" fill="#333333" p-id="13151"></path></svg>