<?xml version="1.0" standalone="no"?><!DOCTYPE svg PUBLIC "-//W3C//DTD SVG 1.1//EN" "http://www.w3.org/Graphics/SVG/1.1/DTD/svg11.dtd"><svg t="1765352574941" class="icon" viewBox="0 0 1024 1024" version="1.1" xmlns="http://www.w3.org/2000/svg" p-id="9298" xmlns:xlink="http://www.w3.org/1999/xlink" width="200" height="200"><path d="M656 85.333333C694.229333 85.333333 725.333333 117.248 725.333333 156.458667V213.333333h192a21.333333 21.333333 0 1 1 0 42.666667h-65.28l-38.613333 574.72c-2.261333 36.608-30.293333 65.28-63.829333 65.28H274.346667c-33.536 0-61.568-28.672-63.829334-65.28L171.946667 256H106.666667a21.333333 21.333333 0 1 1 0-42.666667H298.666667V156.458667C298.666667 117.248 329.728 85.333333 368 85.333333z m153.258667 170.666667H214.698667l38.4 572.032c0.896 14.208 10.24 25.301333 21.248 25.301333h475.306666c11.008 0 20.309333-11.093333 21.205334-25.301333L809.258667 256zM405.333333 341.333333a21.333333 21.333333 0 0 1 21.333334 21.333334v384a21.333333 21.333333 0 1 1-42.666667 0v-384a21.333333 21.333333 0 0 1 21.333333-21.333334z m213.333334 0a21.333333 21.333333 0 0 1 21.333333 21.333334v384a21.333333 21.333333 0 1 1-42.666667 0v-384a21.333333 21.333333 0 0 1 21.333334-21.333334z m37.333333-213.333333h-288C353.28 128 341.333333 140.8 341.333333 156.458667V213.333333h341.333334V156.458667C682.666667 140.8 670.72 128 656 128z" fill="#666666" p-id="9299"></path></svg>