<?xml version="1.0" standalone="no"?><!DOCTYPE svg PUBLIC "-//W3C//DTD SVG 1.1//EN" "http://www.w3.org/Graphics/SVG/1.1/DTD/svg11.dtd"><svg t="1765352469807" class="icon" viewBox="0 0 1024 1024" version="1.1" xmlns="http://www.w3.org/2000/svg" p-id="3315" xmlns:xlink="http://www.w3.org/1999/xlink" width="200" height="200"><path d="M889.088 147.626667a82.346667 82.346667 0 0 0-76.373333-51.029334H210.986667c-33.493333 0-63.488 20.010667-76.373334 50.986667a82.346667 82.346667 0 0 0 17.792 90.112l272.981334 263.296v261.973333c0 9.344 3.626667 18.346667 10.112 25.045334l125.184 129.493333a35.797333 35.797333 0 0 0 39.424 8.405333 36.010667 36.010667 0 0 0 22.485333-33.408v-393.216l248.490667-261.504a82.56 82.56 0 0 0 18.005333-90.197333z m-68.906667 39.168l-258.986666 272.085333a35.84 35.84 0 0 0-10.496 25.514667V806.4l-53.205334-58.026667v-262.4a36.053333 36.053333 0 0 0-10.496-25.386666L203.392 186.794667a10.026667 10.026667 0 0 1-2.304-11.605334 10.069333 10.069333 0 0 1 9.898667-6.570666h601.728c5.888 0 8.576 3.584 9.898666 6.570666a10.026667 10.026667 0 0 1-2.432 11.605334z" fill="#000000" opacity=".65" p-id="3316"></path></svg>